<?xml version="1.0" encoding="iso-8859-1"?>
<!-- Uploaded to: SVG Repo, www.svgrepo.com, Generator: SVG Repo Mixer Tools -->
<svg height="800px" width="800px" version="1.1" id="Layer_1" xmlns="http://www.w3.org/2000/svg" xmlns:xlink="http://www.w3.org/1999/xlink" 
	 viewBox="0 0 512 512" xml:space="preserve">
<circle style="fill:#FFD15D;" cx="256" cy="256" r="256"/>
<path style="fill:#F9B54C;" d="M143.067,371.79l138.907,138.907c105.438-10.624,191.991-85.228,220.251-184.399l-99.061-99.061
	l-101.771,22.235L196.913,144.991l-44.782-10.1l-59.087,72.707l99.749,99.749v73.33L143.067,371.79z"/>
<path style="fill:#A82116;" d="M345.054,228.933c0,0,17.255-31.546,52.822-6.156c22.128,15.794,25.224,49.623,44.989,83.208
	l-49.569,14.202C393.295,320.186,382.531,235.098,345.054,228.933z"/>
<path style="fill:#D83E20;" d="M214.462,388.003c0,0-11.195-88.697,46.932-88.697c57.265,0,50.807,88.697,50.807,88.697h22.39
	c13.777-35.737,31.216-81.584,31.216-123.787c0-54.896-51.022-49.945-51.022-49.945h-86.759
	C211.88,96.513,108.115,125.79,108.115,125.79l3.013,15.931c0,0-7.751,13.348-8.18,25.403c-0.431,12.055-9.902,40.472-9.902,40.472
	l22.39,9.042l8.611-16.362c0,0,22.39-0.862,27.557-19.806c0,0,13.974,41.363,8.18,78.793
	c-5.598,36.168,14.639,80.946,32.723,128.738h21.956V388.003z"/>
<path style="fill:#C1321F;" d="M314.783,214.271h-53.612v85.042c0.074,0,0.147-0.005,0.221-0.005
	c57.265,0,50.807,88.697,50.807,88.697h22.39c13.777-35.737,31.216-81.584,31.216-123.787
	C365.804,209.318,314.783,214.271,314.783,214.271z"/>
<path style="fill:#734B46;" d="M261.172,415.796c-55.091,0-104.527-21.919-129.017-57.204l18.411-12.778
	c20.058,28.898,63.472,47.571,110.606,47.571s90.548-18.673,110.606-47.571l18.411,12.778
	C365.699,393.876,316.263,415.796,261.172,415.796z"/>
<path style="fill:#633D3B;" d="M390.189,358.593l-18.411-12.778c-20.058,28.898-63.472,47.571-110.606,47.571v22.411
	C316.263,415.796,365.699,393.876,390.189,358.593z"/>
</svg>